solid CATIA STL
  facet normal  1.000000e+000  0.000000e+000  0.000000e+000
    outer loop
      vertex  3.650000e-002  2.500000e+001 -5.300000e-001
      vertex  3.650000e-002  2.544801e+001 -4.908040e-001
      vertex  3.650000e-002  2.455199e+001 -4.908040e-001
    endloop
  endfacet
  facet normal  9.999999e-001  0.000000e+000  0.000000e+000
    outer loop
      vertex  3.650000e-002  2.500000e+001  4.630000e+000
      vertex  3.650000e-002  2.455199e+001  4.590804e+000
      vertex  3.650000e-002  2.544801e+001  4.590804e+000
    endloop
  endfacet
  facet normal  1.000000e+000  0.000000e+000  0.000000e+000
    outer loop
      vertex  3.650000e-002  2.544801e+001  4.590804e+000
      vertex  3.650000e-002  2.455199e+001  4.590804e+000
      vertex  3.650000e-002  2.411759e+001  4.474407e+000
    endloop
  endfacet
  facet normal  1.000000e+000  0.000000e+000  0.000000e+000
    outer loop
      vertex  3.650000e-002  2.544801e+001  4.590804e+000
      vertex  3.650000e-002  2.411759e+001  4.474407e+000
      vertex  3.650000e-002  2.588241e+001  4.474407e+000
    endloop
  endfacet
  facet normal  1.000000e+000  0.000000e+000  0.000000e+000
    outer loop
      vertex  3.650000e-002  2.588241e+001  4.474407e+000
      vertex  3.650000e-002  2.411759e+001  4.474407e+000
      vertex  3.650000e-002  2.371000e+001  4.284346e+000
    endloop
  endfacet
  facet normal  1.000000e+000  0.000000e+000  0.000000e+000
    outer loop
      vertex  3.650000e-002  2.588241e+001  4.474407e+000
      vertex  3.650000e-002  2.371000e+001  4.284346e+000
      vertex  3.650000e-002  2.629000e+001  4.284346e+000
    endloop
  endfacet
  facet normal  1.000000e+000  0.000000e+000  0.000000e+000
    outer loop
      vertex  3.650000e-002  2.629000e+001  4.284346e+000
      vertex  3.650000e-002  2.371000e+001  4.284346e+000
      vertex  3.650000e-002  2.334161e+001  4.026395e+000
    endloop
  endfacet
  facet normal  1.000000e+000  0.000000e+000  0.000000e+000
    outer loop
      vertex  3.650000e-002  2.629000e+001  4.284346e+000
      vertex  3.650000e-002  2.334161e+001  4.026395e+000
      vertex  3.650000e-002  2.665839e+001  4.026395e+000
    endloop
  endfacet
  facet normal  1.000000e+000  0.000000e+000  0.000000e+000
    outer loop
      vertex  3.650000e-002  2.665839e+001  4.026395e+000
      vertex  3.650000e-002  2.334161e+001  4.026395e+000
      vertex  3.650000e-002  2.302361e+001  3.708392e+000
    endloop
  endfacet
  facet normal  1.000000e+000  0.000000e+000  0.000000e+000
    outer loop
      vertex  3.650000e-002  2.665839e+001  4.026395e+000
      vertex  3.650000e-002  2.302361e+001  3.708392e+000
      vertex  3.650000e-002  2.697639e+001  3.708392e+000
    endloop
  endfacet
  facet normal  1.000000e+000  0.000000e+000  0.000000e+000
    outer loop
      vertex  3.650000e-002  2.697639e+001  3.708392e+000
      vertex  3.650000e-002  2.302361e+001  3.708392e+000
      vertex  3.650000e-002  2.276565e+001  3.340000e+000
    endloop
  endfacet
  facet normal  1.000000e+000  0.000000e+000  0.000000e+000
    outer loop
      vertex  3.650000e-002  2.697639e+001  3.708392e+000
      vertex  3.650000e-002  2.276565e+001  3.340000e+000
      vertex  3.650000e-002  2.723435e+001  3.340000e+000
    endloop
  endfacet
  facet normal  1.000000e+000  0.000000e+000  0.000000e+000
    outer loop
      vertex  3.650000e-002  2.723435e+001  3.340000e+000
      vertex  3.650000e-002  2.276565e+001  3.340000e+000
      vertex  3.650000e-002  2.257559e+001  2.932412e+000
    endloop
  endfacet
  facet normal  9.999999e-001  0.000000e+000  0.000000e+000
    outer loop
      vertex  3.650000e-002  2.723435e+001  3.340000e+000
      vertex  3.650000e-002  2.257559e+001  2.932412e+000
      vertex  3.650000e-002  2.742441e+001  2.932412e+000
    endloop
  endfacet
  facet normal  1.000000e+000  0.000000e+000  0.000000e+000
    outer loop
      vertex  3.650000e-002  2.742441e+001  2.932412e+000
      vertex  3.650000e-002  2.257559e+001  2.932412e+000
      vertex  3.650000e-002  2.245920e+001  2.498012e+000
    endloop
  endfacet
  facet normal  1.000000e+000  0.000000e+000  0.000000e+000
    outer loop
      vertex  3.650000e-002  2.742441e+001  2.932412e+000
      vertex  3.650000e-002  2.245920e+001  2.498012e+000
      vertex  3.650000e-002  2.754080e+001  2.498012e+000
    endloop
  endfacet
  facet normal  1.000000e+000  0.000000e+000  0.000000e+000
    outer loop
      vertex  3.650000e-002  2.754080e+001  2.498012e+000
      vertex  3.650000e-002  2.245920e+001  2.498012e+000
      vertex  3.650000e-002  2.242000e+001  2.050000e+000
    endloop
  endfacet
  facet normal  9.999999e-001  0.000000e+000  0.000000e+000
    outer loop
      vertex  3.650000e-002  2.754080e+001  2.498012e+000
      vertex  3.650000e-002  2.242000e+001  2.050000e+000
      vertex  3.650000e-002  2.758000e+001  2.050000e+000
    endloop
  endfacet
  facet normal  1.000000e+000  0.000000e+000  0.000000e+000
    outer loop
      vertex  3.650000e-002  2.758000e+001  2.050000e+000
      vertex  3.650000e-002  2.242000e+001  2.050000e+000
      vertex  3.650000e-002  2.245920e+001  1.601988e+000
    endloop
  endfacet
  facet normal  1.000000e+000  0.000000e+000  0.000000e+000
    outer loop
      vertex  3.650000e-002  2.758000e+001  2.050000e+000
      vertex  3.650000e-002  2.245920e+001  1.601988e+000
      vertex  3.650000e-002  2.754080e+001  1.601988e+000
    endloop
  endfacet
  facet normal  1.000000e+000  0.000000e+000  0.000000e+000
    outer loop
      vertex  3.650000e-002  2.754080e+001  1.601988e+000
      vertex  3.650000e-002  2.245920e+001  1.601988e+000
      vertex  3.650000e-002  2.257559e+001  1.167588e+000
    endloop
  endfacet
  facet normal  1.000000e+000  0.000000e+000  0.000000e+000
    outer loop
      vertex  3.650000e-002  2.754080e+001  1.601988e+000
      vertex  3.650000e-002  2.257559e+001  1.167588e+000
      vertex  3.650000e-002  2.742441e+001  1.167588e+000
    endloop
  endfacet
  facet normal  9.999999e-001  0.000000e+000  0.000000e+000
    outer loop
      vertex  3.650000e-002  2.742441e+001  1.167588e+000
      vertex  3.650000e-002  2.257559e+001  1.167588e+000
      vertex  3.650000e-002  2.276565e+001  7.600000e-001
    endloop
  endfacet
  facet normal  1.000000e+000  0.000000e+000  0.000000e+000
    outer loop
      vertex  3.650000e-002  2.742441e+001  1.167588e+000
      vertex  3.650000e-002  2.276565e+001  7.600000e-001
      vertex  3.650000e-002  2.723435e+001  7.600000e-001
    endloop
  endfacet
  facet normal  1.000000e+000  0.000000e+000  0.000000e+000
    outer loop
      vertex  3.650000e-002  2.723435e+001  7.600000e-001
      vertex  3.650000e-002  2.276565e+001  7.600000e-001
      vertex  3.650000e-002  2.302361e+001  3.916080e-001
    endloop
  endfacet
  facet normal  1.000000e+000  0.000000e+000  0.000000e+000
    outer loop
      vertex  3.650000e-002  2.723435e+001  7.600000e-001
      vertex  3.650000e-002  2.302361e+001  3.916080e-001
      vertex  3.650000e-002  2.697639e+001  3.916080e-001
    endloop
  endfacet
  facet normal  1.000000e+000  0.000000e+000  0.000000e+000
    outer loop
      vertex  3.650000e-002  2.697639e+001  3.916080e-001
      vertex  3.650000e-002  2.302361e+001  3.916080e-001
      vertex  3.650000e-002  2.334161e+001  7.360534e-002
    endloop
  endfacet
  facet normal  1.000000e+000  0.000000e+000  0.000000e+000
    outer loop
      vertex  3.650000e-002  2.697639e+001  3.916080e-001
      vertex  3.650000e-002  2.334161e+001  7.360534e-002
      vertex  3.650000e-002  2.665839e+001  7.360534e-002
    endloop
  endfacet
  facet normal  1.000000e+000  0.000000e+000  0.000000e+000
    outer loop
      vertex  3.650000e-002  2.665839e+001  7.360534e-002
      vertex  3.650000e-002  2.334161e+001  7.360534e-002
      vertex  3.650000e-002  2.371000e+001 -1.843455e-001
    endloop
  endfacet
  facet normal  1.000000e+000  0.000000e+000  0.000000e+000
    outer loop
      vertex  3.650000e-002  2.665839e+001  7.360534e-002
      vertex  3.650000e-002  2.371000e+001 -1.843455e-001
      vertex  3.650000e-002  2.629000e+001 -1.843455e-001
    endloop
  endfacet
  facet normal  1.000000e+000  0.000000e+000  0.000000e+000
    outer loop
      vertex  3.650000e-002  2.629000e+001 -1.843455e-001
      vertex  3.650000e-002  2.371000e+001 -1.843455e-001
      vertex  3.650000e-002  2.411759e+001 -3.744070e-001
    endloop
  endfacet
  facet normal  1.000000e+000  0.000000e+000  0.000000e+000
    outer loop
      vertex  3.650000e-002  2.629000e+001 -1.843455e-001
      vertex  3.650000e-002  2.411759e+001 -3.744070e-001
      vertex  3.650000e-002  2.588241e+001 -3.744070e-001
    endloop
  endfacet
  facet normal  1.000000e+000  0.000000e+000  0.000000e+000
    outer loop
      vertex  3.650000e-002  2.588241e+001 -3.744070e-001
      vertex  3.650000e-002  2.411759e+001 -3.744070e-001
      vertex  3.650000e-002  2.455199e+001 -4.908040e-001
    endloop
  endfacet
  facet normal  1.000000e+000  0.000000e+000  0.000000e+000
    outer loop
      vertex  3.650000e-002  2.588241e+001 -3.744070e-001
      vertex  3.650000e-002  2.455199e+001 -4.908040e-001
      vertex  3.650000e-002  2.544801e+001 -4.908040e-001
    endloop
  endfacet
  facet normal -1.000000e+000  0.000000e+000  0.000000e+000
    outer loop
      vertex -1.200000e+000  2.500000e+001  3.935000e+000
      vertex -1.200000e+000  2.463226e+001  3.898780e+000
      vertex -1.200000e+000  2.334161e+001  4.026395e+000
    endloop
  endfacet
  facet normal -1.000000e+000  0.000000e+000  0.000000e+000
    outer loop
      vertex -1.200000e+000  2.500000e+001  3.935000e+000
      vertex -1.200000e+000  2.334161e+001  4.026395e+000
      vertex -1.200000e+000  2.371000e+001  4.284346e+000
    endloop
  endfacet
  facet normal -1.000000e+000  0.000000e+000  0.000000e+000
    outer loop
      vertex -1.200000e+000  2.500000e+001  3.935000e+000
      vertex -1.200000e+000  2.371000e+001  4.284346e+000
      vertex -1.200000e+000  2.411759e+001  4.474407e+000
    endloop
  endfacet
  facet normal -1.000000e+000  0.000000e+000  0.000000e+000
    outer loop
      vertex -1.200000e+000  2.500000e+001  3.935000e+000
      vertex -1.200000e+000  2.411759e+001  4.474407e+000
      vertex -1.200000e+000  2.455199e+001  4.590804e+000
    endloop
  endfacet
  facet normal -1.000000e+000  0.000000e+000  0.000000e+000
    outer loop
      vertex -1.200000e+000  2.500000e+001  3.935000e+000
      vertex -1.200000e+000  2.455199e+001  4.590804e+000
      vertex -1.200000e+000  2.500000e+001  4.630000e+000
    endloop
  endfacet
  facet normal -1.000000e+000  0.000000e+000  0.000000e+000
    outer loop
      vertex -1.200000e+000  2.500000e+001  3.935000e+000
      vertex -1.200000e+000  2.500000e+001  4.630000e+000
      vertex -1.200000e+000  2.544801e+001  4.590804e+000
    endloop
  endfacet
  facet normal -1.000000e+000  0.000000e+000  -0.000000e+000
    outer loop
      vertex -1.200000e+000  2.500000e+001  3.935000e+000
      vertex -1.200000e+000  2.544801e+001  4.590804e+000
      vertex -1.200000e+000  2.588241e+001  4.474407e+000
    endloop
  endfacet
  facet normal -1.000000e+000  0.000000e+000  -0.000000e+000
    outer loop
      vertex -1.200000e+000  2.500000e+001  3.935000e+000
      vertex -1.200000e+000  2.588241e+001  4.474407e+000
      vertex -1.200000e+000  2.629000e+001  4.284346e+000
    endloop
  endfacet
  facet normal -1.000000e+000  0.000000e+000  -0.000000e+000
    outer loop
      vertex -1.200000e+000  2.500000e+001  3.935000e+000
      vertex -1.200000e+000  2.629000e+001  4.284346e+000
      vertex -1.200000e+000  2.665839e+001  4.026395e+000
    endloop
  endfacet
  facet normal -1.000000e+000  0.000000e+000  0.000000e+000
    outer loop
      vertex -1.200000e+000  2.500000e+001  3.935000e+000
      vertex -1.200000e+000  2.665839e+001  4.026395e+000
      vertex -1.200000e+000  2.536774e+001  3.898780e+000
    endloop
  endfacet
  facet normal -1.000000e+000  0.000000e+000  0.000000e+000
    outer loop
      vertex -1.200000e+000  2.334161e+001  7.360534e-002
      vertex -1.200000e+000  2.302361e+001  3.916080e-001
      vertex -1.200000e+000  2.427864e+001  3.084871e-001
    endloop
  endfacet
  facet normal -9.999999e-001  0.000000e+000  -0.000000e+000
    outer loop
      vertex -1.200000e+000  2.334161e+001  7.360534e-002
      vertex -1.200000e+000  2.427864e+001  3.084871e-001
      vertex -1.200000e+000  2.463226e+001  2.012198e-001
    endloop
  endfacet
  facet normal -1.000000e+000  0.000000e+000  -0.000000e+000
    outer loop
      vertex -1.200000e+000  2.334161e+001  7.360534e-002
      vertex -1.200000e+000  2.463226e+001  2.012198e-001
      vertex -1.200000e+000  2.500000e+001  1.650000e-001
    endloop
  endfacet
  facet normal -1.000000e+000  0.000000e+000  -0.000000e+000
    outer loop
      vertex -1.200000e+000  2.334161e+001  7.360534e-002
      vertex -1.200000e+000  2.500000e+001  1.650000e-001
      vertex -1.200000e+000  2.500000e+001 -5.300000e-001
    endloop
  endfacet
  facet normal -1.000000e+000  0.000000e+000  0.000000e+000
    outer loop
      vertex -1.200000e+000  2.500000e+001 -5.300000e-001
      vertex -1.200000e+000  2.455199e+001 -4.908040e-001
      vertex -1.200000e+000  2.411759e+001 -3.744070e-001
    endloop
  endfacet
  facet normal -9.999999e-001  0.000000e+000  0.000000e+000
    outer loop
      vertex -1.200000e+000  2.500000e+001 -5.300000e-001
      vertex -1.200000e+000  2.411759e+001 -3.744070e-001
      vertex -1.200000e+000  2.371000e+001 -1.843455e-001
    endloop
  endfacet
  facet normal -9.999999e-001  0.000000e+000  0.000000e+000
    outer loop
      vertex -1.200000e+000  2.500000e+001 -5.300000e-001
      vertex -1.200000e+000  2.371000e+001 -1.843455e-001
      vertex -1.200000e+000  2.334161e+001  7.360534e-002
    endloop
  endfacet
  facet normal -1.000000e+000  0.000000e+000  0.000000e+000
    outer loop
      vertex -1.200000e+000  2.500000e+001 -5.300000e-001
      vertex -1.200000e+000  2.500000e+001  1.650000e-001
      vertex -1.200000e+000  2.665839e+001  7.360534e-002
    endloop
  endfacet
  facet normal -1.000000e+000  0.000000e+000  0.000000e+000
    outer loop
      vertex -1.200000e+000  2.500000e+001 -5.300000e-001
      vertex -1.200000e+000  2.665839e+001  7.360534e-002
      vertex -1.200000e+000  2.629000e+001 -1.843455e-001
    endloop
  endfacet
  facet normal -9.999999e-001  0.000000e+000  0.000000e+000
    outer loop
      vertex -1.200000e+000  2.500000e+001 -5.300000e-001
      vertex -1.200000e+000  2.629000e+001 -1.843455e-001
      vertex -1.200000e+000  2.588241e+001 -3.744070e-001
    endloop
  endfacet
  facet normal -1.000000e+000  0.000000e+000  0.000000e+000
    outer loop
      vertex -1.200000e+000  2.500000e+001 -5.300000e-001
      vertex -1.200000e+000  2.588241e+001 -3.744070e-001
      vertex -1.200000e+000  2.544801e+001 -4.908040e-001
    endloop
  endfacet
  facet normal -9.999999e-001  0.000000e+000  0.000000e+000
    outer loop
      vertex -1.200000e+000  2.366710e+001  3.382896e+000
      vertex -1.200000e+000  2.276565e+001  3.340000e+000
      vertex -1.200000e+000  2.395275e+001  3.617320e+000
    endloop
  endfacet
  facet normal -1.000000e+000  -0.000000e+000  0.000000e+000
    outer loop
      vertex -1.200000e+000  2.395275e+001  3.617320e+000
      vertex -1.200000e+000  2.276565e+001  3.340000e+000
      vertex -1.200000e+000  2.302361e+001  3.708392e+000
    endloop
  endfacet
  facet normal -9.999999e-001  0.000000e+000  0.000000e+000
    outer loop
      vertex -1.200000e+000  2.395275e+001  3.617320e+000
      vertex -1.200000e+000  2.302361e+001  3.708392e+000
      vertex -1.200000e+000  2.427864e+001  3.791513e+000
    endloop
  endfacet
  facet normal -1.000000e+000  -0.000000e+000  0.000000e+000
    outer loop
      vertex -1.200000e+000  2.427864e+001  3.791513e+000
      vertex -1.200000e+000  2.302361e+001  3.708392e+000
      vertex -1.200000e+000  2.334161e+001  4.026395e+000
    endloop
  endfacet
  facet normal -1.000000e+000  0.000000e+000  0.000000e+000
    outer loop
      vertex -1.200000e+000  2.427864e+001  3.791513e+000
      vertex -1.200000e+000  2.334161e+001  4.026395e+000
      vertex -1.200000e+000  2.463226e+001  3.898780e+000
    endloop
  endfacet
  facet normal -1.000000e+000  0.000000e+000  0.000000e+000
    outer loop
      vertex -1.200000e+000  2.325849e+001  2.771358e+000
      vertex -1.200000e+000  2.257559e+001  2.932412e+000
      vertex -1.200000e+000  2.343268e+001  3.097250e+000
    endloop
  endfacet
  facet normal -1.000000e+000  -0.000000e+000  0.000000e+000
    outer loop
      vertex -1.200000e+000  2.343268e+001  3.097250e+000
      vertex -1.200000e+000  2.257559e+001  2.932412e+000
      vertex -1.200000e+000  2.276565e+001  3.340000e+000
    endloop
  endfacet
  facet normal -1.000000e+000  0.000000e+000  0.000000e+000
    outer loop
      vertex -1.200000e+000  2.343268e+001  3.097250e+000
      vertex -1.200000e+000  2.276565e+001  3.340000e+000
      vertex -1.200000e+000  2.366710e+001  3.382896e+000
    endloop
  endfacet
  facet normal -1.000000e+000  0.000000e+000  0.000000e+000
    outer loop
      vertex -1.200000e+000  2.366710e+001  7.171037e-001
      vertex -1.200000e+000  2.276565e+001  7.600000e-001
      vertex -1.200000e+000  2.343268e+001  1.002750e+000
    endloop
  endfacet
  facet normal -1.000000e+000  -0.000000e+000  0.000000e+000
    outer loop
      vertex -1.200000e+000  2.343268e+001  1.002750e+000
      vertex -1.200000e+000  2.276565e+001  7.600000e-001
      vertex -1.200000e+000  2.257559e+001  1.167588e+000
    endloop
  endfacet
  facet normal -1.000000e+000  0.000000e+000  0.000000e+000
    outer loop
      vertex -1.200000e+000  2.343268e+001  1.002750e+000
      vertex -1.200000e+000  2.257559e+001  1.167588e+000
      vertex -1.200000e+000  2.325849e+001  1.328642e+000
    endloop
  endfacet
  facet normal -1.000000e+000  -0.000000e+000  0.000000e+000
    outer loop
      vertex -1.200000e+000  2.325849e+001  1.328642e+000
      vertex -1.200000e+000  2.257559e+001  1.167588e+000
      vertex -1.200000e+000  2.245920e+001  1.601988e+000
    endloop
  endfacet
  facet normal -1.000000e+000  0.000000e+000  0.000000e+000
    outer loop
      vertex -1.200000e+000  2.325849e+001  1.328642e+000
      vertex -1.200000e+000  2.245920e+001  1.601988e+000
      vertex -1.200000e+000  2.315122e+001  1.682255e+000
    endloop
  endfacet
  facet normal -1.000000e+000  -0.000000e+000  0.000000e+000
    outer loop
      vertex -1.200000e+000  2.315122e+001  1.682255e+000
      vertex -1.200000e+000  2.245920e+001  1.601988e+000
      vertex -1.200000e+000  2.242000e+001  2.050000e+000
    endloop
  endfacet
  facet normal -1.000000e+000  0.000000e+000  0.000000e+000
    outer loop
      vertex -1.200000e+000  2.315122e+001  1.682255e+000
      vertex -1.200000e+000  2.242000e+001  2.050000e+000
      vertex -1.200000e+000  2.311500e+001  2.050000e+000
    endloop
  endfacet
  facet normal -1.000000e+000  0.000000e+000  0.000000e+000
    outer loop
      vertex -1.200000e+000  2.311500e+001  2.050000e+000
      vertex -1.200000e+000  2.242000e+001  2.050000e+000
      vertex -1.200000e+000  2.245920e+001  2.498012e+000
    endloop
  endfacet
  facet normal -1.000000e+000  0.000000e+000  0.000000e+000
    outer loop
      vertex -1.200000e+000  2.311500e+001  2.050000e+000
      vertex -1.200000e+000  2.245920e+001  2.498012e+000
      vertex -1.200000e+000  2.315122e+001  2.417745e+000
    endloop
  endfacet
  facet normal -1.000000e+000  0.000000e+000  0.000000e+000
    outer loop
      vertex -1.200000e+000  2.315122e+001  2.417745e+000
      vertex -1.200000e+000  2.245920e+001  2.498012e+000
      vertex -1.200000e+000  2.257559e+001  2.932412e+000
    endloop
  endfacet
  facet normal -1.000000e+000  0.000000e+000  0.000000e+000
    outer loop
      vertex -1.200000e+000  2.315122e+001  2.417745e+000
      vertex -1.200000e+000  2.257559e+001  2.932412e+000
      vertex -1.200000e+000  2.325849e+001  2.771358e+000
    endloop
  endfacet
  facet normal -1.000000e+000  0.000000e+000  0.000000e+000
    outer loop
      vertex -1.200000e+000  2.427864e+001  3.084871e-001
      vertex -1.200000e+000  2.302361e+001  3.916080e-001
      vertex -1.200000e+000  2.395275e+001  4.826798e-001
    endloop
  endfacet
  facet normal -1.000000e+000  -0.000000e+000  0.000000e+000
    outer loop
      vertex -1.200000e+000  2.395275e+001  4.826798e-001
      vertex -1.200000e+000  2.302361e+001  3.916080e-001
      vertex -1.200000e+000  2.276565e+001  7.600000e-001
    endloop
  endfacet
  facet normal -1.000000e+000  0.000000e+000  0.000000e+000
    outer loop
      vertex -1.200000e+000  2.395275e+001  4.826798e-001
      vertex -1.200000e+000  2.276565e+001  7.600000e-001
      vertex -1.200000e+000  2.366710e+001  7.171037e-001
    endloop
  endfacet
  facet normal -9.999999e-001  0.000000e+000  0.000000e+000
    outer loop
      vertex -1.200000e+000  2.633290e+001  3.382896e+000
      vertex -1.200000e+000  2.604725e+001  3.617320e+000
      vertex -1.200000e+000  2.723435e+001  3.340000e+000
    endloop
  endfacet
  facet normal -1.000000e+000  0.000000e+000  0.000000e+000
    outer loop
      vertex -1.200000e+000  2.723435e+001  3.340000e+000
      vertex -1.200000e+000  2.604725e+001  3.617320e+000
      vertex -1.200000e+000  2.572136e+001  3.791513e+000
    endloop
  endfacet
  facet normal -9.999999e-001  0.000000e+000  0.000000e+000
    outer loop
      vertex -1.200000e+000  2.723435e+001  3.340000e+000
      vertex -1.200000e+000  2.572136e+001  3.791513e+000
      vertex -1.200000e+000  2.697639e+001  3.708392e+000
    endloop
  endfacet
  facet normal -1.000000e+000  0.000000e+000  0.000000e+000
    outer loop
      vertex -1.200000e+000  2.697639e+001  3.708392e+000
      vertex -1.200000e+000  2.572136e+001  3.791513e+000
      vertex -1.200000e+000  2.536774e+001  3.898780e+000
    endloop
  endfacet
  facet normal -1.000000e+000  0.000000e+000  0.000000e+000
    outer loop
      vertex -1.200000e+000  2.697639e+001  3.708392e+000
      vertex -1.200000e+000  2.536774e+001  3.898780e+000
      vertex -1.200000e+000  2.665839e+001  4.026395e+000
    endloop
  endfacet
  facet normal -1.000000e+000  0.000000e+000  0.000000e+000
    outer loop
      vertex -1.200000e+000  2.674151e+001  2.771358e+000
      vertex -1.200000e+000  2.656732e+001  3.097250e+000
      vertex -1.200000e+000  2.742441e+001  2.932412e+000
    endloop
  endfacet
  facet normal -9.999999e-001  0.000000e+000  0.000000e+000
    outer loop
      vertex -1.200000e+000  2.742441e+001  2.932412e+000
      vertex -1.200000e+000  2.656732e+001  3.097250e+000
      vertex -1.200000e+000  2.633290e+001  3.382896e+000
    endloop
  endfacet
  facet normal -9.999999e-001  0.000000e+000  0.000000e+000
    outer loop
      vertex -1.200000e+000  2.742441e+001  2.932412e+000
      vertex -1.200000e+000  2.633290e+001  3.382896e+000
      vertex -1.200000e+000  2.723435e+001  3.340000e+000
    endloop
  endfacet
  facet normal -1.000000e+000  0.000000e+000  -0.000000e+000
    outer loop
      vertex -1.200000e+000  2.633290e+001  7.171037e-001
      vertex -1.200000e+000  2.656732e+001  1.002750e+000
      vertex -1.200000e+000  2.723435e+001  7.600000e-001
    endloop
  endfacet
  facet normal -1.000000e+000  0.000000e+000  0.000000e+000
    outer loop
      vertex -1.200000e+000  2.723435e+001  7.600000e-001
      vertex -1.200000e+000  2.656732e+001  1.002750e+000
      vertex -1.200000e+000  2.674151e+001  1.328642e+000
    endloop
  endfacet
  facet normal -1.000000e+000  0.000000e+000  0.000000e+000
    outer loop
      vertex -1.200000e+000  2.723435e+001  7.600000e-001
      vertex -1.200000e+000  2.674151e+001  1.328642e+000
      vertex -1.200000e+000  2.742441e+001  1.167588e+000
    endloop
  endfacet
  facet normal -1.000000e+000  0.000000e+000  0.000000e+000
    outer loop
      vertex -1.200000e+000  2.742441e+001  1.167588e+000
      vertex -1.200000e+000  2.674151e+001  1.328642e+000
      vertex -1.200000e+000  2.684878e+001  1.682255e+000
    endloop
  endfacet
  facet normal -9.999999e-001  0.000000e+000  0.000000e+000
    outer loop
      vertex -1.200000e+000  2.742441e+001  1.167588e+000
      vertex -1.200000e+000  2.684878e+001  1.682255e+000
      vertex -1.200000e+000  2.754080e+001  1.601988e+000
    endloop
  endfacet
  facet normal -1.000000e+000  0.000000e+000  0.000000e+000
    outer loop
      vertex -1.200000e+000  2.754080e+001  1.601988e+000
      vertex -1.200000e+000  2.684878e+001  1.682255e+000
      vertex -1.200000e+000  2.688500e+001  2.050000e+000
    endloop
  endfacet
  facet normal -1.000000e+000  0.000000e+000  0.000000e+000
    outer loop
      vertex -1.200000e+000  2.754080e+001  1.601988e+000
      vertex -1.200000e+000  2.688500e+001  2.050000e+000
      vertex -1.200000e+000  2.758000e+001  2.050000e+000
    endloop
  endfacet
  facet normal -1.000000e+000  0.000000e+000  0.000000e+000
    outer loop
      vertex -1.200000e+000  2.758000e+001  2.050000e+000
      vertex -1.200000e+000  2.688500e+001  2.050000e+000
      vertex -1.200000e+000  2.684878e+001  2.417745e+000
    endloop
  endfacet
  facet normal -1.000000e+000  0.000000e+000  0.000000e+000
    outer loop
      vertex -1.200000e+000  2.758000e+001  2.050000e+000
      vertex -1.200000e+000  2.684878e+001  2.417745e+000
      vertex -1.200000e+000  2.754080e+001  2.498012e+000
    endloop
  endfacet
  facet normal -1.000000e+000  -0.000000e+000  0.000000e+000
    outer loop
      vertex -1.200000e+000  2.754080e+001  2.498012e+000
      vertex -1.200000e+000  2.684878e+001  2.417745e+000
      vertex -1.200000e+000  2.674151e+001  2.771358e+000
    endloop
  endfacet
  facet normal -1.000000e+000  0.000000e+000  0.000000e+000
    outer loop
      vertex -1.200000e+000  2.754080e+001  2.498012e+000
      vertex -1.200000e+000  2.674151e+001  2.771358e+000
      vertex -1.200000e+000  2.742441e+001  2.932412e+000
    endloop
  endfacet
  facet normal -1.000000e+000  0.000000e+000  -0.000000e+000
    outer loop
      vertex -1.200000e+000  2.572136e+001  3.084871e-001
      vertex -1.200000e+000  2.604725e+001  4.826798e-001
      vertex -1.200000e+000  2.697639e+001  3.916080e-001
    endloop
  endfacet
  facet normal -9.999999e-001  0.000000e+000  0.000000e+000
    outer loop
      vertex -1.200000e+000  2.697639e+001  3.916080e-001
      vertex -1.200000e+000  2.604725e+001  4.826798e-001
      vertex -1.200000e+000  2.633290e+001  7.171037e-001
    endloop
  endfacet
  facet normal -9.999999e-001  0.000000e+000  0.000000e+000
    outer loop
      vertex -1.200000e+000  2.697639e+001  3.916080e-001
      vertex -1.200000e+000  2.633290e+001  7.171037e-001
      vertex -1.200000e+000  2.723435e+001  7.600000e-001
    endloop
  endfacet
  facet normal -1.000000e+000  0.000000e+000  -0.000000e+000
    outer loop
      vertex -1.200000e+000  2.500000e+001  1.650000e-001
      vertex -1.200000e+000  2.536774e+001  2.012198e-001
      vertex -1.200000e+000  2.665839e+001  7.360534e-002
    endloop
  endfacet
  facet normal -1.000000e+000  0.000000e+000  0.000000e+000
    outer loop
      vertex -1.200000e+000  2.665839e+001  7.360534e-002
      vertex -1.200000e+000  2.536774e+001  2.012198e-001
      vertex -1.200000e+000  2.572136e+001  3.084871e-001
    endloop
  endfacet
  facet normal -1.000000e+000  0.000000e+000  0.000000e+000
    outer loop
      vertex -1.200000e+000  2.665839e+001  7.360534e-002
      vertex -1.200000e+000  2.572136e+001  3.084871e-001
      vertex -1.200000e+000  2.697639e+001  3.916080e-001
    endloop
  endfacet
  facet normal  0.000000e+000  9.961947e-001 -8.715580e-002
    outer loop
      vertex -1.200000e+000  2.758000e+001  2.050000e+000
      vertex  3.650000e-002  2.758000e+001  2.050000e+000
      vertex -1.200000e+000  2.754080e+001  1.601988e+000
    endloop
  endfacet
  facet normal  0.000000e+000  9.961947e-001 -8.715580e-002
    outer loop
      vertex -1.200000e+000  2.754080e+001  1.601988e+000
      vertex  3.650000e-002  2.758000e+001  2.050000e+000
      vertex  3.650000e-002  2.754080e+001  1.601988e+000
    endloop
  endfacet
  facet normal  0.000000e+000  9.659254e-001 -2.588207e-001
    outer loop
      vertex -1.200000e+000  2.754080e+001  1.601988e+000
      vertex  3.650000e-002  2.754080e+001  1.601988e+000
      vertex -1.200000e+000  2.742441e+001  1.167588e+000
    endloop
  endfacet
  facet normal  0.000000e+000  9.659254e-001 -2.588207e-001
    outer loop
      vertex -1.200000e+000  2.742441e+001  1.167588e+000
      vertex  3.650000e-002  2.754080e+001  1.601988e+000
      vertex  3.650000e-002  2.742441e+001  1.167588e+000
    endloop
  endfacet
  facet normal  0.000000e+000  9.063093e-001 -4.226151e-001
    outer loop
      vertex -1.200000e+000  2.742441e+001  1.167588e+000
      vertex  3.650000e-002  2.742441e+001  1.167588e+000
      vertex -1.200000e+000  2.723435e+001  7.600000e-001
    endloop
  endfacet
  facet normal  0.000000e+000  9.063093e-001 -4.226151e-001
    outer loop
      vertex -1.200000e+000  2.723435e+001  7.600000e-001
      vertex  3.650000e-002  2.742441e+001  1.167588e+000
      vertex  3.650000e-002  2.723435e+001  7.600000e-001
    endloop
  endfacet
  facet normal  0.000000e+000  8.191512e-001 -5.735778e-001
    outer loop
      vertex -1.200000e+000  2.723435e+001  7.600000e-001
      vertex  3.650000e-002  2.723435e+001  7.600000e-001
      vertex -1.200000e+000  2.697639e+001  3.916080e-001
    endloop
  endfacet
  facet normal  0.000000e+000  8.191512e-001 -5.735778e-001
    outer loop
      vertex -1.200000e+000  2.697639e+001  3.916080e-001
      vertex  3.650000e-002  2.723435e+001  7.600000e-001
      vertex  3.650000e-002  2.697639e+001  3.916080e-001
    endloop
  endfacet
  facet normal  0.000000e+000  7.071068e-001 -7.071069e-001
    outer loop
      vertex -1.200000e+000  2.697639e+001  3.916080e-001
      vertex  3.650000e-002  2.697639e+001  3.916080e-001
      vertex -1.200000e+000  2.665839e+001  7.360534e-002
    endloop
  endfacet
  facet normal  0.000000e+000  7.071068e-001 -7.071069e-001
    outer loop
      vertex -1.200000e+000  2.665839e+001  7.360534e-002
      vertex  3.650000e-002  2.697639e+001  3.916080e-001
      vertex  3.650000e-002  2.665839e+001  7.360534e-002
    endloop
  endfacet
  facet normal  0.000000e+000  5.735775e-001 -8.191513e-001
    outer loop
      vertex -1.200000e+000  2.665839e+001  7.360534e-002
      vertex  3.650000e-002  2.665839e+001  7.360534e-002
      vertex -1.200000e+000  2.629000e+001 -1.843455e-001
    endloop
  endfacet
  facet normal  0.000000e+000  5.735775e-001 -8.191513e-001
    outer loop
      vertex -1.200000e+000  2.629000e+001 -1.843455e-001
      vertex  3.650000e-002  2.665839e+001  7.360534e-002
      vertex  3.650000e-002  2.629000e+001 -1.843455e-001
    endloop
  endfacet
  facet normal  0.000000e+000  4.226175e-001 -9.063081e-001
    outer loop
      vertex -1.200000e+000  2.629000e+001 -1.843455e-001
      vertex  3.650000e-002  2.629000e+001 -1.843455e-001
      vertex -1.200000e+000  2.588241e+001 -3.744070e-001
    endloop
  endfacet
  facet normal  0.000000e+000  4.226175e-001 -9.063081e-001
    outer loop
      vertex -1.200000e+000  2.588241e+001 -3.744070e-001
      vertex  3.650000e-002  2.629000e+001 -1.843455e-001
      vertex  3.650000e-002  2.588241e+001 -3.744070e-001
    endloop
  endfacet
  facet normal  0.000000e+000  2.588185e-001 -9.659259e-001
    outer loop
      vertex -1.200000e+000  2.588241e+001 -3.744070e-001
      vertex  3.650000e-002  2.588241e+001 -3.744070e-001
      vertex -1.200000e+000  2.544801e+001 -4.908040e-001
    endloop
  endfacet
  facet normal  0.000000e+000  2.588185e-001 -9.659259e-001
    outer loop
      vertex -1.200000e+000  2.544801e+001 -4.908040e-001
      vertex  3.650000e-002  2.588241e+001 -3.744070e-001
      vertex  3.650000e-002  2.544801e+001 -4.908040e-001
    endloop
  endfacet
  facet normal  0.000000e+000  8.715583e-002 -9.961947e-001
    outer loop
      vertex -1.200000e+000  2.544801e+001 -4.908040e-001
      vertex  3.650000e-002  2.544801e+001 -4.908040e-001
      vertex -1.200000e+000  2.500000e+001 -5.300000e-001
    endloop
  endfacet
  facet normal  0.000000e+000  8.715583e-002 -9.961947e-001
    outer loop
      vertex -1.200000e+000  2.500000e+001 -5.300000e-001
      vertex  3.650000e-002  2.544801e+001 -4.908040e-001
      vertex  3.650000e-002  2.500000e+001 -5.300000e-001
    endloop
  endfacet
  facet normal  -0.000000e+000 -8.715583e-002 -9.961947e-001
    outer loop
      vertex -1.200000e+000  2.500000e+001 -5.300000e-001
      vertex  3.650000e-002  2.500000e+001 -5.300000e-001
      vertex -1.200000e+000  2.455199e+001 -4.908040e-001
    endloop
  endfacet
  facet normal  0.000000e+000 -8.715583e-002 -9.961947e-001
    outer loop
      vertex -1.200000e+000  2.455199e+001 -4.908040e-001
      vertex  3.650000e-002  2.500000e+001 -5.300000e-001
      vertex  3.650000e-002  2.455199e+001 -4.908040e-001
    endloop
  endfacet
  facet normal  -0.000000e+000 -2.588185e-001 -9.659259e-001
    outer loop
      vertex -1.200000e+000  2.455199e+001 -4.908040e-001
      vertex  3.650000e-002  2.455199e+001 -4.908040e-001
      vertex -1.200000e+000  2.411759e+001 -3.744070e-001
    endloop
  endfacet
  facet normal  0.000000e+000 -2.588185e-001 -9.659259e-001
    outer loop
      vertex -1.200000e+000  2.411759e+001 -3.744070e-001
      vertex  3.650000e-002  2.455199e+001 -4.908040e-001
      vertex  3.650000e-002  2.411759e+001 -3.744070e-001
    endloop
  endfacet
  facet normal  -0.000000e+000 -4.226175e-001 -9.063081e-001
    outer loop
      vertex -1.200000e+000  2.411759e+001 -3.744070e-001
      vertex  3.650000e-002  2.411759e+001 -3.744070e-001
      vertex -1.200000e+000  2.371000e+001 -1.843455e-001
    endloop
  endfacet
  facet normal  0.000000e+000 -4.226175e-001 -9.063081e-001
    outer loop
      vertex -1.200000e+000  2.371000e+001 -1.843455e-001
      vertex  3.650000e-002  2.411759e+001 -3.744070e-001
      vertex  3.650000e-002  2.371000e+001 -1.843455e-001
    endloop
  endfacet
  facet normal  -0.000000e+000 -5.735775e-001 -8.191513e-001
    outer loop
      vertex -1.200000e+000  2.371000e+001 -1.843455e-001
      vertex  3.650000e-002  2.371000e+001 -1.843455e-001
      vertex -1.200000e+000  2.334161e+001  7.360534e-002
    endloop
  endfacet
  facet normal  0.000000e+000 -5.735775e-001 -8.191513e-001
    outer loop
      vertex -1.200000e+000  2.334161e+001  7.360534e-002
      vertex  3.650000e-002  2.371000e+001 -1.843455e-001
      vertex  3.650000e-002  2.334161e+001  7.360534e-002
    endloop
  endfacet
  facet normal  -0.000000e+000 -7.071068e-001 -7.071069e-001
    outer loop
      vertex -1.200000e+000  2.334161e+001  7.360534e-002
      vertex  3.650000e-002  2.334161e+001  7.360534e-002
      vertex -1.200000e+000  2.302361e+001  3.916080e-001
    endloop
  endfacet
  facet normal  0.000000e+000 -7.071068e-001 -7.071069e-001
    outer loop
      vertex -1.200000e+000  2.302361e+001  3.916080e-001
      vertex  3.650000e-002  2.334161e+001  7.360534e-002
      vertex  3.650000e-002  2.302361e+001  3.916080e-001
    endloop
  endfacet
  facet normal  -0.000000e+000 -8.191512e-001 -5.735778e-001
    outer loop
      vertex -1.200000e+000  2.302361e+001  3.916080e-001
      vertex  3.650000e-002  2.302361e+001  3.916080e-001
      vertex -1.200000e+000  2.276565e+001  7.600000e-001
    endloop
  endfacet
  facet normal  0.000000e+000 -8.191512e-001 -5.735778e-001
    outer loop
      vertex -1.200000e+000  2.276565e+001  7.600000e-001
      vertex  3.650000e-002  2.302361e+001  3.916080e-001
      vertex  3.650000e-002  2.276565e+001  7.600000e-001
    endloop
  endfacet
  facet normal  -0.000000e+000 -9.063093e-001 -4.226151e-001
    outer loop
      vertex -1.200000e+000  2.276565e+001  7.600000e-001
      vertex  3.650000e-002  2.276565e+001  7.600000e-001
      vertex -1.200000e+000  2.257559e+001  1.167588e+000
    endloop
  endfacet
  facet normal  0.000000e+000 -9.063093e-001 -4.226151e-001
    outer loop
      vertex -1.200000e+000  2.257559e+001  1.167588e+000
      vertex  3.650000e-002  2.276565e+001  7.600000e-001
      vertex  3.650000e-002  2.257559e+001  1.167588e+000
    endloop
  endfacet
  facet normal  -0.000000e+000 -9.659254e-001 -2.588207e-001
    outer loop
      vertex -1.200000e+000  2.257559e+001  1.167588e+000
      vertex  3.650000e-002  2.257559e+001  1.167588e+000
      vertex -1.200000e+000  2.245920e+001  1.601988e+000
    endloop
  endfacet
  facet normal  0.000000e+000 -9.659254e-001 -2.588207e-001
    outer loop
      vertex -1.200000e+000  2.245920e+001  1.601988e+000
      vertex  3.650000e-002  2.257559e+001  1.167588e+000
      vertex  3.650000e-002  2.245920e+001  1.601988e+000
    endloop
  endfacet
  facet normal  -0.000000e+000 -9.961947e-001 -8.715580e-002
    outer loop
      vertex -1.200000e+000  2.245920e+001  1.601988e+000
      vertex  3.650000e-002  2.245920e+001  1.601988e+000
      vertex -1.200000e+000  2.242000e+001  2.050000e+000
    endloop
  endfacet
  facet normal  0.000000e+000 -9.961947e-001 -8.715580e-002
    outer loop
      vertex -1.200000e+000  2.242000e+001  2.050000e+000
      vertex  3.650000e-002  2.245920e+001  1.601988e+000
      vertex  3.650000e-002  2.242000e+001  2.050000e+000
    endloop
  endfacet
  facet normal  0.000000e+000 -9.961947e-001  8.715577e-002
    outer loop
      vertex -1.200000e+000  2.242000e+001  2.050000e+000
      vertex  3.650000e-002  2.242000e+001  2.050000e+000
      vertex -1.200000e+000  2.245920e+001  2.498012e+000
    endloop
  endfacet
  facet normal  0.000000e+000 -9.961947e-001  8.715577e-002
    outer loop
      vertex -1.200000e+000  2.245920e+001  2.498012e+000
      vertex  3.650000e-002  2.242000e+001  2.050000e+000
      vertex  3.650000e-002  2.245920e+001  2.498012e+000
    endloop
  endfacet
  facet normal  0.000000e+000 -9.659255e-001  2.588208e-001
    outer loop
      vertex -1.200000e+000  2.245920e+001  2.498012e+000
      vertex  3.650000e-002  2.245920e+001  2.498012e+000
      vertex -1.200000e+000  2.257559e+001  2.932412e+000
    endloop
  endfacet
  facet normal  0.000000e+000 -9.659255e-001  2.588208e-001
    outer loop
      vertex -1.200000e+000  2.257559e+001  2.932412e+000
      vertex  3.650000e-002  2.245920e+001  2.498012e+000
      vertex  3.650000e-002  2.257559e+001  2.932412e+000
    endloop
  endfacet
  facet normal  0.000000e+000 -9.063093e-001  4.226151e-001
    outer loop
      vertex -1.200000e+000  2.257559e+001  2.932412e+000
      vertex  3.650000e-002  2.257559e+001  2.932412e+000
      vertex -1.200000e+000  2.276565e+001  3.340000e+000
    endloop
  endfacet
  facet normal  0.000000e+000 -9.063093e-001  4.226151e-001
    outer loop
      vertex -1.200000e+000  2.276565e+001  3.340000e+000
      vertex  3.650000e-002  2.257559e+001  2.932412e+000
      vertex  3.650000e-002  2.276565e+001  3.340000e+000
    endloop
  endfacet
  facet normal  0.000000e+000 -8.191513e-001  5.735775e-001
    outer loop
      vertex -1.200000e+000  2.276565e+001  3.340000e+000
      vertex  3.650000e-002  2.276565e+001  3.340000e+000
      vertex -1.200000e+000  2.302361e+001  3.708392e+000
    endloop
  endfacet
  facet normal  0.000000e+000 -8.191513e-001  5.735775e-001
    outer loop
      vertex -1.200000e+000  2.302361e+001  3.708392e+000
      vertex  3.650000e-002  2.276565e+001  3.340000e+000
      vertex  3.650000e-002  2.302361e+001  3.708392e+000
    endloop
  endfacet
  facet normal  0.000000e+000 -7.071068e-001  7.071068e-001
    outer loop
      vertex -1.200000e+000  2.302361e+001  3.708392e+000
      vertex  3.650000e-002  2.302361e+001  3.708392e+000
      vertex -1.200000e+000  2.334161e+001  4.026395e+000
    endloop
  endfacet
  facet normal  0.000000e+000 -7.071068e-001  7.071068e-001
    outer loop
      vertex -1.200000e+000  2.334161e+001  4.026395e+000
      vertex  3.650000e-002  2.302361e+001  3.708392e+000
      vertex  3.650000e-002  2.334161e+001  4.026395e+000
    endloop
  endfacet
  facet normal  0.000000e+000 -5.735773e-001  8.191515e-001
    outer loop
      vertex -1.200000e+000  2.334161e+001  4.026395e+000
      vertex  3.650000e-002  2.334161e+001  4.026395e+000
      vertex -1.200000e+000  2.371000e+001  4.284346e+000
    endloop
  endfacet
  facet normal  0.000000e+000 -5.735773e-001  8.191515e-001
    outer loop
      vertex -1.200000e+000  2.371000e+001  4.284346e+000
      vertex  3.650000e-002  2.334161e+001  4.026395e+000
      vertex  3.650000e-002  2.371000e+001  4.284346e+000
    endloop
  endfacet
  facet normal  0.000000e+000 -4.226178e-001  9.063080e-001
    outer loop
      vertex -1.200000e+000  2.371000e+001  4.284346e+000
      vertex  3.650000e-002  2.371000e+001  4.284346e+000
      vertex -1.200000e+000  2.411759e+001  4.474407e+000
    endloop
  endfacet
  facet normal  0.000000e+000 -4.226178e-001  9.063080e-001
    outer loop
      vertex -1.200000e+000  2.411759e+001  4.474407e+000
      vertex  3.650000e-002  2.371000e+001  4.284346e+000
      vertex  3.650000e-002  2.411759e+001  4.474407e+000
    endloop
  endfacet
  facet normal  0.000000e+000 -2.588182e-001  9.659260e-001
    outer loop
      vertex -1.200000e+000  2.411759e+001  4.474407e+000
      vertex  3.650000e-002  2.411759e+001  4.474407e+000
      vertex -1.200000e+000  2.455199e+001  4.590804e+000
    endloop
  endfacet
  facet normal  0.000000e+000 -2.588182e-001  9.659260e-001
    outer loop
      vertex -1.200000e+000  2.455199e+001  4.590804e+000
      vertex  3.650000e-002  2.411759e+001  4.474407e+000
      vertex  3.650000e-002  2.455199e+001  4.590804e+000
    endloop
  endfacet
  facet normal  0.000000e+000 -8.715596e-002  9.961947e-001
    outer loop
      vertex -1.200000e+000  2.455199e+001  4.590804e+000
      vertex  3.650000e-002  2.455199e+001  4.590804e+000
      vertex -1.200000e+000  2.500000e+001  4.630000e+000
    endloop
  endfacet
  facet normal  0.000000e+000 -8.715596e-002  9.961947e-001
    outer loop
      vertex -1.200000e+000  2.500000e+001  4.630000e+000
      vertex  3.650000e-002  2.455199e+001  4.590804e+000
      vertex  3.650000e-002  2.500000e+001  4.630000e+000
    endloop
  endfacet
  facet normal  0.000000e+000  8.715596e-002  9.961947e-001
    outer loop
      vertex -1.200000e+000  2.500000e+001  4.630000e+000
      vertex  3.650000e-002  2.500000e+001  4.630000e+000
      vertex -1.200000e+000  2.544801e+001  4.590804e+000
    endloop
  endfacet
  facet normal  -0.000000e+000  8.715596e-002  9.961947e-001
    outer loop
      vertex -1.200000e+000  2.544801e+001  4.590804e+000
      vertex  3.650000e-002  2.500000e+001  4.630000e+000
      vertex  3.650000e-002  2.544801e+001  4.590804e+000
    endloop
  endfacet
  facet normal  0.000000e+000  2.588182e-001  9.659260e-001
    outer loop
      vertex -1.200000e+000  2.544801e+001  4.590804e+000
      vertex  3.650000e-002  2.544801e+001  4.590804e+000
      vertex -1.200000e+000  2.588241e+001  4.474407e+000
    endloop
  endfacet
  facet normal  -0.000000e+000  2.588182e-001  9.659260e-001
    outer loop
      vertex -1.200000e+000  2.588241e+001  4.474407e+000
      vertex  3.650000e-002  2.544801e+001  4.590804e+000
      vertex  3.650000e-002  2.588241e+001  4.474407e+000
    endloop
  endfacet
  facet normal  0.000000e+000  4.226178e-001  9.063080e-001
    outer loop
      vertex -1.200000e+000  2.588241e+001  4.474407e+000
      vertex  3.650000e-002  2.588241e+001  4.474407e+000
      vertex -1.200000e+000  2.629000e+001  4.284346e+000
    endloop
  endfacet
  facet normal  -0.000000e+000  4.226178e-001  9.063080e-001
    outer loop
      vertex -1.200000e+000  2.629000e+001  4.284346e+000
      vertex  3.650000e-002  2.588241e+001  4.474407e+000
      vertex  3.650000e-002  2.629000e+001  4.284346e+000
    endloop
  endfacet
  facet normal  0.000000e+000  5.735773e-001  8.191515e-001
    outer loop
      vertex -1.200000e+000  2.629000e+001  4.284346e+000
      vertex  3.650000e-002  2.629000e+001  4.284346e+000
      vertex -1.200000e+000  2.665839e+001  4.026395e+000
    endloop
  endfacet
  facet normal  -0.000000e+000  5.735773e-001  8.191515e-001
    outer loop
      vertex -1.200000e+000  2.665839e+001  4.026395e+000
      vertex  3.650000e-002  2.629000e+001  4.284346e+000
      vertex  3.650000e-002  2.665839e+001  4.026395e+000
    endloop
  endfacet
  facet normal  0.000000e+000  7.071068e-001  7.071068e-001
    outer loop
      vertex -1.200000e+000  2.665839e+001  4.026395e+000
      vertex  3.650000e-002  2.665839e+001  4.026395e+000
      vertex -1.200000e+000  2.697639e+001  3.708392e+000
    endloop
  endfacet
  facet normal  -0.000000e+000  7.071068e-001  7.071068e-001
    outer loop
      vertex -1.200000e+000  2.697639e+001  3.708392e+000
      vertex  3.650000e-002  2.665839e+001  4.026395e+000
      vertex  3.650000e-002  2.697639e+001  3.708392e+000
    endloop
  endfacet
  facet normal  0.000000e+000  8.191513e-001  5.735775e-001
    outer loop
      vertex -1.200000e+000  2.697639e+001  3.708392e+000
      vertex  3.650000e-002  2.697639e+001  3.708392e+000
      vertex -1.200000e+000  2.723435e+001  3.340000e+000
    endloop
  endfacet
  facet normal  -0.000000e+000  8.191513e-001  5.735775e-001
    outer loop
      vertex -1.200000e+000  2.723435e+001  3.340000e+000
      vertex  3.650000e-002  2.697639e+001  3.708392e+000
      vertex  3.650000e-002  2.723435e+001  3.340000e+000
    endloop
  endfacet
  facet normal  0.000000e+000  9.063093e-001  4.226151e-001
    outer loop
      vertex -1.200000e+000  2.723435e+001  3.340000e+000
      vertex  3.650000e-002  2.723435e+001  3.340000e+000
      vertex -1.200000e+000  2.742441e+001  2.932412e+000
    endloop
  endfacet
  facet normal  -0.000000e+000  9.063093e-001  4.226151e-001
    outer loop
      vertex -1.200000e+000  2.742441e+001  2.932412e+000
      vertex  3.650000e-002  2.723435e+001  3.340000e+000
      vertex  3.650000e-002  2.742441e+001  2.932412e+000
    endloop
  endfacet
  facet normal  0.000000e+000  9.659255e-001  2.588208e-001
    outer loop
      vertex -1.200000e+000  2.742441e+001  2.932412e+000
      vertex  3.650000e-002  2.742441e+001  2.932412e+000
      vertex -1.200000e+000  2.754080e+001  2.498012e+000
    endloop
  endfacet
  facet normal  -0.000000e+000  9.659255e-001  2.588208e-001
    outer loop
      vertex -1.200000e+000  2.754080e+001  2.498012e+000
      vertex  3.650000e-002  2.742441e+001  2.932412e+000
      vertex  3.650000e-002  2.754080e+001  2.498012e+000
    endloop
  endfacet
  facet normal  0.000000e+000  9.961947e-001  8.715577e-002
    outer loop
      vertex -1.200000e+000  2.754080e+001  2.498012e+000
      vertex  3.650000e-002  2.754080e+001  2.498012e+000
      vertex -1.200000e+000  2.758000e+001  2.050000e+000
    endloop
  endfacet
  facet normal  -0.000000e+000  9.961947e-001  8.715577e-002
    outer loop
      vertex -1.200000e+000  2.758000e+001  2.050000e+000
      vertex  3.650000e-002  2.754080e+001  2.498012e+000
      vertex  3.650000e-002  2.758000e+001  2.050000e+000
    endloop
  endfacet
  facet normal -1.000000e+000  -0.000000e+000  0.000000e+000
    outer loop
      vertex -2.200000e+000  2.463226e+001  2.012198e-001
      vertex -2.200000e+000  2.536774e+001  2.012198e-001
      vertex -2.200000e+000  2.500000e+001  1.650000e-001
    endloop
  endfacet
  facet normal -1.000000e+000  0.000000e+000  0.000000e+000
    outer loop
      vertex -2.200000e+000  2.536774e+001  2.012198e-001
      vertex -2.200000e+000  2.463226e+001  2.012198e-001
      vertex -2.200000e+000  2.572136e+001  3.084871e-001
    endloop
  endfacet
  facet normal -9.999999e-001  -0.000000e+000  0.000000e+000
    outer loop
      vertex -2.200000e+000  2.572136e+001  3.084871e-001
      vertex -2.200000e+000  2.463226e+001  2.012198e-001
      vertex -2.200000e+000  2.427864e+001  3.084871e-001
    endloop
  endfacet
  facet normal -1.000000e+000  0.000000e+000  0.000000e+000
    outer loop
      vertex -2.200000e+000  2.572136e+001  3.084871e-001
      vertex -2.200000e+000  2.427864e+001  3.084871e-001
      vertex -2.200000e+000  2.604725e+001  4.826798e-001
    endloop
  endfacet
  facet normal -1.000000e+000  -0.000000e+000  0.000000e+000
    outer loop
      vertex -2.200000e+000  2.604725e+001  4.826798e-001
      vertex -2.200000e+000  2.427864e+001  3.084871e-001
      vertex -2.200000e+000  2.395275e+001  4.826798e-001
    endloop
  endfacet
  facet normal -9.999999e-001  0.000000e+000  0.000000e+000
    outer loop
      vertex -2.200000e+000  2.604725e+001  4.826798e-001
      vertex -2.200000e+000  2.395275e+001  4.826798e-001
      vertex -2.200000e+000  2.633290e+001  7.171037e-001
    endloop
  endfacet
  facet normal -9.999999e-001  -0.000000e+000  0.000000e+000
    outer loop
      vertex -2.200000e+000  2.633290e+001  7.171037e-001
      vertex -2.200000e+000  2.395275e+001  4.826798e-001
      vertex -2.200000e+000  2.366710e+001  7.171037e-001
    endloop
  endfacet
  facet normal -1.000000e+000  0.000000e+000  0.000000e+000
    outer loop
      vertex -2.200000e+000  2.633290e+001  7.171037e-001
      vertex -2.200000e+000  2.366710e+001  7.171037e-001
      vertex -2.200000e+000  2.656732e+001  1.002750e+000
    endloop
  endfacet
  facet normal -1.000000e+000  -0.000000e+000  0.000000e+000
    outer loop
      vertex -2.200000e+000  2.656732e+001  1.002750e+000
      vertex -2.200000e+000  2.366710e+001  7.171037e-001
      vertex -2.200000e+000  2.343268e+001  1.002750e+000
    endloop
  endfacet
  facet normal -1.000000e+000  0.000000e+000  0.000000e+000
    outer loop
      vertex -2.200000e+000  2.656732e+001  1.002750e+000
      vertex -2.200000e+000  2.343268e+001  1.002750e+000
      vertex -2.200000e+000  2.674151e+001  1.328642e+000
    endloop
  endfacet
  facet normal -1.000000e+000  -0.000000e+000  0.000000e+000
    outer loop
      vertex -2.200000e+000  2.674151e+001  1.328642e+000
      vertex -2.200000e+000  2.343268e+001  1.002750e+000
      vertex -2.200000e+000  2.325849e+001  1.328642e+000
    endloop
  endfacet
  facet normal -1.000000e+000  0.000000e+000  0.000000e+000
    outer loop
      vertex -2.200000e+000  2.674151e+001  1.328642e+000
      vertex -2.200000e+000  2.325849e+001  1.328642e+000
      vertex -2.200000e+000  2.684878e+001  1.682255e+000
    endloop
  endfacet
  facet normal -9.999999e-001  -0.000000e+000  0.000000e+000
    outer loop
      vertex -2.200000e+000  2.684878e+001  1.682255e+000
      vertex -2.200000e+000  2.325849e+001  1.328642e+000
      vertex -2.200000e+000  2.315122e+001  1.682255e+000
    endloop
  endfacet
  facet normal -1.000000e+000  0.000000e+000  0.000000e+000
    outer loop
      vertex -2.200000e+000  2.684878e+001  1.682255e+000
      vertex -2.200000e+000  2.315122e+001  1.682255e+000
      vertex -2.200000e+000  2.688500e+001  2.050000e+000
    endloop
  endfacet
  facet normal -1.000000e+000  -0.000000e+000  0.000000e+000
    outer loop
      vertex -2.200000e+000  2.688500e+001  2.050000e+000
      vertex -2.200000e+000  2.315122e+001  1.682255e+000
      vertex -2.200000e+000  2.311500e+001  2.050000e+000
    endloop
  endfacet
  facet normal -1.000000e+000  0.000000e+000  0.000000e+000
    outer loop
      vertex -2.200000e+000  2.688500e+001  2.050000e+000
      vertex -2.200000e+000  2.311500e+001  2.050000e+000
      vertex -2.200000e+000  2.684878e+001  2.417745e+000
    endloop
  endfacet
  facet normal -1.000000e+000  -0.000000e+000  0.000000e+000
    outer loop
      vertex -2.200000e+000  2.684878e+001  2.417745e+000
      vertex -2.200000e+000  2.311500e+001  2.050000e+000
      vertex -2.200000e+000  2.315122e+001  2.417745e+000
    endloop
  endfacet
  facet normal -1.000000e+000  0.000000e+000  0.000000e+000
    outer loop
      vertex -2.200000e+000  2.684878e+001  2.417745e+000
      vertex -2.200000e+000  2.315122e+001  2.417745e+000
      vertex -2.200000e+000  2.674151e+001  2.771358e+000
    endloop
  endfacet
  facet normal -1.000000e+000  -0.000000e+000  0.000000e+000
    outer loop
      vertex -2.200000e+000  2.674151e+001  2.771358e+000
      vertex -2.200000e+000  2.315122e+001  2.417745e+000
      vertex -2.200000e+000  2.325849e+001  2.771358e+000
    endloop
  endfacet
  facet normal -1.000000e+000  0.000000e+000  0.000000e+000
    outer loop
      vertex -2.200000e+000  2.674151e+001  2.771358e+000
      vertex -2.200000e+000  2.325849e+001  2.771358e+000
      vertex -2.200000e+000  2.656732e+001  3.097250e+000
    endloop
  endfacet
  facet normal -1.000000e+000  -0.000000e+000  0.000000e+000
    outer loop
      vertex -2.200000e+000  2.656732e+001  3.097250e+000
      vertex -2.200000e+000  2.325849e+001  2.771358e+000
      vertex -2.200000e+000  2.343268e+001  3.097250e+000
    endloop
  endfacet
  facet normal -1.000000e+000  0.000000e+000  0.000000e+000
    outer loop
      vertex -2.200000e+000  2.656732e+001  3.097250e+000
      vertex -2.200000e+000  2.343268e+001  3.097250e+000
      vertex -2.200000e+000  2.633290e+001  3.382896e+000
    endloop
  endfacet
  facet normal -1.000000e+000  -0.000000e+000  0.000000e+000
    outer loop
      vertex -2.200000e+000  2.633290e+001  3.382896e+000
      vertex -2.200000e+000  2.343268e+001  3.097250e+000
      vertex -2.200000e+000  2.366710e+001  3.382896e+000
    endloop
  endfacet
  facet normal -1.000000e+000  0.000000e+000  0.000000e+000
    outer loop
      vertex -2.200000e+000  2.633290e+001  3.382896e+000
      vertex -2.200000e+000  2.366710e+001  3.382896e+000
      vertex -2.200000e+000  2.604725e+001  3.617320e+000
    endloop
  endfacet
  facet normal -1.000000e+000  -0.000000e+000  0.000000e+000
    outer loop
      vertex -2.200000e+000  2.604725e+001  3.617320e+000
      vertex -2.200000e+000  2.366710e+001  3.382896e+000
      vertex -2.200000e+000  2.395275e+001  3.617320e+000
    endloop
  endfacet
  facet normal -1.000000e+000  0.000000e+000  0.000000e+000
    outer loop
      vertex -2.200000e+000  2.604725e+001  3.617320e+000
      vertex -2.200000e+000  2.395275e+001  3.617320e+000
      vertex -2.200000e+000  2.572136e+001  3.791513e+000
    endloop
  endfacet
  facet normal -1.000000e+000  -0.000000e+000  0.000000e+000
    outer loop
      vertex -2.200000e+000  2.572136e+001  3.791513e+000
      vertex -2.200000e+000  2.395275e+001  3.617320e+000
      vertex -2.200000e+000  2.427864e+001  3.791513e+000
    endloop
  endfacet
  facet normal -1.000000e+000  0.000000e+000  0.000000e+000
    outer loop
      vertex -2.200000e+000  2.572136e+001  3.791513e+000
      vertex -2.200000e+000  2.427864e+001  3.791513e+000
      vertex -2.200000e+000  2.536774e+001  3.898780e+000
    endloop
  endfacet
  facet normal -1.000000e+000  -0.000000e+000  0.000000e+000
    outer loop
      vertex -2.200000e+000  2.536774e+001  3.898780e+000
      vertex -2.200000e+000  2.427864e+001  3.791513e+000
      vertex -2.200000e+000  2.463226e+001  3.898780e+000
    endloop
  endfacet
  facet normal -1.000000e+000  0.000000e+000  0.000000e+000
    outer loop
      vertex -2.200000e+000  2.536774e+001  3.898780e+000
      vertex -2.200000e+000  2.463226e+001  3.898780e+000
      vertex -2.200000e+000  2.500000e+001  3.935000e+000
    endloop
  endfacet
  facet normal  -0.000000e+000  9.951845e-001  9.801926e-002
    outer loop
      vertex -1.200000e+000  2.688500e+001  2.050000e+000
      vertex -2.200000e+000  2.688500e+001  2.050000e+000
      vertex -1.200000e+000  2.684878e+001  2.417745e+000
    endloop
  endfacet
  facet normal  0.000000e+000  9.951845e-001  9.801926e-002
    outer loop
      vertex -1.200000e+000  2.684878e+001  2.417745e+000
      vertex -2.200000e+000  2.688500e+001  2.050000e+000
      vertex -2.200000e+000  2.684878e+001  2.417745e+000
    endloop
  endfacet
  facet normal  -0.000000e+000  9.569403e-001  2.902849e-001
    outer loop
      vertex -1.200000e+000  2.684878e+001  2.417745e+000
      vertex -2.200000e+000  2.684878e+001  2.417745e+000
      vertex -1.200000e+000  2.674151e+001  2.771358e+000
    endloop
  endfacet
  facet normal  0.000000e+000  9.569403e-001  2.902849e-001
    outer loop
      vertex -1.200000e+000  2.674151e+001  2.771358e+000
      vertex -2.200000e+000  2.684878e+001  2.417745e+000
      vertex -2.200000e+000  2.674151e+001  2.771358e+000
    endloop
  endfacet
  facet normal  -0.000000e+000  8.819216e-001  4.713960e-001
    outer loop
      vertex -1.200000e+000  2.674151e+001  2.771358e+000
      vertex -2.200000e+000  2.674151e+001  2.771358e+000
      vertex -1.200000e+000  2.656732e+001  3.097250e+000
    endloop
  endfacet
  facet normal  0.000000e+000  8.819216e-001  4.713960e-001
    outer loop
      vertex -1.200000e+000  2.656732e+001  3.097250e+000
      vertex -2.200000e+000  2.674151e+001  2.771358e+000
      vertex -2.200000e+000  2.656732e+001  3.097250e+000
    endloop
  endfacet
  facet normal  -0.000000e+000  7.730119e-001  6.343915e-001
    outer loop
      vertex -1.200000e+000  2.656732e+001  3.097250e+000
      vertex -2.200000e+000  2.656732e+001  3.097250e+000
      vertex -1.200000e+000  2.633290e+001  3.382896e+000
    endloop
  endfacet
  facet normal  0.000000e+000  7.730119e-001  6.343915e-001
    outer loop
      vertex -1.200000e+000  2.633290e+001  3.382896e+000
      vertex -2.200000e+000  2.656732e+001  3.097250e+000
      vertex -2.200000e+000  2.633290e+001  3.382896e+000
    endloop
  endfacet
  facet normal  -0.000000e+000  6.343935e-001  7.730103e-001
    outer loop
      vertex -1.200000e+000  2.633290e+001  3.382896e+000
      vertex -2.200000e+000  2.633290e+001  3.382896e+000
      vertex -1.200000e+000  2.604725e+001  3.617320e+000
    endloop
  endfacet
  facet normal  0.000000e+000  6.343935e-001  7.730103e-001
    outer loop
      vertex -1.200000e+000  2.604725e+001  3.617320e+000
      vertex -2.200000e+000  2.633290e+001  3.382896e+000
      vertex -2.200000e+000  2.604725e+001  3.617320e+000
    endloop
  endfacet
  facet normal  -0.000000e+000  4.713947e-001  8.819224e-001
    outer loop
      vertex -1.200000e+000  2.604725e+001  3.617320e+000
      vertex -2.200000e+000  2.604725e+001  3.617320e+000
      vertex -1.200000e+000  2.572136e+001  3.791513e+000
    endloop
  endfacet
  facet normal  0.000000e+000  4.713947e-001  8.819224e-001
    outer loop
      vertex -1.200000e+000  2.572136e+001  3.791513e+000
      vertex -2.200000e+000  2.604725e+001  3.617320e+000
      vertex -2.200000e+000  2.572136e+001  3.791513e+000
    endloop
  endfacet
  facet normal  -0.000000e+000  2.902849e-001  9.569403e-001
    outer loop
      vertex -1.200000e+000  2.572136e+001  3.791513e+000
      vertex -2.200000e+000  2.572136e+001  3.791513e+000
      vertex -1.200000e+000  2.536774e+001  3.898780e+000
    endloop
  endfacet
  facet normal  0.000000e+000  2.902849e-001  9.569403e-001
    outer loop
      vertex -1.200000e+000  2.536774e+001  3.898780e+000
      vertex -2.200000e+000  2.572136e+001  3.791513e+000
      vertex -2.200000e+000  2.536774e+001  3.898780e+000
    endloop
  endfacet
  facet normal  -0.000000e+000  9.801695e-002  9.951847e-001
    outer loop
      vertex -1.200000e+000  2.536774e+001  3.898780e+000
      vertex -2.200000e+000  2.536774e+001  3.898780e+000
      vertex -1.200000e+000  2.500000e+001  3.935000e+000
    endloop
  endfacet
  facet normal  0.000000e+000  9.801695e-002  9.951847e-001
    outer loop
      vertex -1.200000e+000  2.500000e+001  3.935000e+000
      vertex -2.200000e+000  2.536774e+001  3.898780e+000
      vertex -2.200000e+000  2.500000e+001  3.935000e+000
    endloop
  endfacet
  facet normal  0.000000e+000 -9.801695e-002  9.951847e-001
    outer loop
      vertex -1.200000e+000  2.500000e+001  3.935000e+000
      vertex -2.200000e+000  2.500000e+001  3.935000e+000
      vertex -1.200000e+000  2.463226e+001  3.898780e+000
    endloop
  endfacet
  facet normal  0.000000e+000 -9.801695e-002  9.951847e-001
    outer loop
      vertex -1.200000e+000  2.463226e+001  3.898780e+000
      vertex -2.200000e+000  2.500000e+001  3.935000e+000
      vertex -2.200000e+000  2.463226e+001  3.898780e+000
    endloop
  endfacet
  facet normal  0.000000e+000 -2.902849e-001  9.569403e-001
    outer loop
      vertex -1.200000e+000  2.463226e+001  3.898780e+000
      vertex -2.200000e+000  2.463226e+001  3.898780e+000
      vertex -1.200000e+000  2.427864e+001  3.791513e+000
    endloop
  endfacet
  facet normal  0.000000e+000 -2.902849e-001  9.569403e-001
    outer loop
      vertex -1.200000e+000  2.427864e+001  3.791513e+000
      vertex -2.200000e+000  2.463226e+001  3.898780e+000
      vertex -2.200000e+000  2.427864e+001  3.791513e+000
    endloop
  endfacet
  facet normal  0.000000e+000 -4.713947e-001  8.819224e-001
    outer loop
      vertex -1.200000e+000  2.427864e+001  3.791513e+000
      vertex -2.200000e+000  2.427864e+001  3.791513e+000
      vertex -1.200000e+000  2.395275e+001  3.617320e+000
    endloop
  endfacet
  facet normal  0.000000e+000 -4.713947e-001  8.819224e-001
    outer loop
      vertex -1.200000e+000  2.395275e+001  3.617320e+000
      vertex -2.200000e+000  2.427864e+001  3.791513e+000
      vertex -2.200000e+000  2.395275e+001  3.617320e+000
    endloop
  endfacet
  facet normal  0.000000e+000 -6.343935e-001  7.730103e-001
    outer loop
      vertex -1.200000e+000  2.395275e+001  3.617320e+000
      vertex -2.200000e+000  2.395275e+001  3.617320e+000
      vertex -1.200000e+000  2.366710e+001  3.382896e+000
    endloop
  endfacet
  facet normal  0.000000e+000 -6.343935e-001  7.730103e-001
    outer loop
      vertex -1.200000e+000  2.366710e+001  3.382896e+000
      vertex -2.200000e+000  2.395275e+001  3.617320e+000
      vertex -2.200000e+000  2.366710e+001  3.382896e+000
    endloop
  endfacet
  facet normal  0.000000e+000 -7.730119e-001  6.343915e-001
    outer loop
      vertex -1.200000e+000  2.366710e+001  3.382896e+000
      vertex -2.200000e+000  2.366710e+001  3.382896e+000
      vertex -1.200000e+000  2.343268e+001  3.097250e+000
    endloop
  endfacet
  facet normal  0.000000e+000 -7.730119e-001  6.343915e-001
    outer loop
      vertex -1.200000e+000  2.343268e+001  3.097250e+000
      vertex -2.200000e+000  2.366710e+001  3.382896e+000
      vertex -2.200000e+000  2.343268e+001  3.097250e+000
    endloop
  endfacet
  facet normal  0.000000e+000 -8.819216e-001  4.713960e-001
    outer loop
      vertex -1.200000e+000  2.343268e+001  3.097250e+000
      vertex -2.200000e+000  2.343268e+001  3.097250e+000
      vertex -1.200000e+000  2.325849e+001  2.771358e+000
    endloop
  endfacet
  facet normal  0.000000e+000 -8.819216e-001  4.713960e-001
    outer loop
      vertex -1.200000e+000  2.325849e+001  2.771358e+000
      vertex -2.200000e+000  2.343268e+001  3.097250e+000
      vertex -2.200000e+000  2.325849e+001  2.771358e+000
    endloop
  endfacet
  facet normal  0.000000e+000 -9.569403e-001  2.902849e-001
    outer loop
      vertex -1.200000e+000  2.325849e+001  2.771358e+000
      vertex -2.200000e+000  2.325849e+001  2.771358e+000
      vertex -1.200000e+000  2.315122e+001  2.417745e+000
    endloop
  endfacet
  facet normal  0.000000e+000 -9.569403e-001  2.902849e-001
    outer loop
      vertex -1.200000e+000  2.315122e+001  2.417745e+000
      vertex -2.200000e+000  2.325849e+001  2.771358e+000
      vertex -2.200000e+000  2.315122e+001  2.417745e+000
    endloop
  endfacet
  facet normal  0.000000e+000 -9.951845e-001  9.801926e-002
    outer loop
      vertex -1.200000e+000  2.315122e+001  2.417745e+000
      vertex -2.200000e+000  2.315122e+001  2.417745e+000
      vertex -1.200000e+000  2.311500e+001  2.050000e+000
    endloop
  endfacet
  facet normal  0.000000e+000 -9.951845e-001  9.801926e-002
    outer loop
      vertex -1.200000e+000  2.311500e+001  2.050000e+000
      vertex -2.200000e+000  2.315122e+001  2.417745e+000
      vertex -2.200000e+000  2.311500e+001  2.050000e+000
    endloop
  endfacet
  facet normal  0.000000e+000 -9.951845e-001 -9.801932e-002
    outer loop
      vertex -1.200000e+000  2.311500e+001  2.050000e+000
      vertex -2.200000e+000  2.311500e+001  2.050000e+000
      vertex -1.200000e+000  2.315122e+001  1.682255e+000
    endloop
  endfacet
  facet normal  -0.000000e+000 -9.951845e-001 -9.801932e-002
    outer loop
      vertex -1.200000e+000  2.315122e+001  1.682255e+000
      vertex -2.200000e+000  2.311500e+001  2.050000e+000
      vertex -2.200000e+000  2.315122e+001  1.682255e+000
    endloop
  endfacet
  facet normal  0.000000e+000 -9.569404e-001 -2.902848e-001
    outer loop
      vertex -1.200000e+000  2.315122e+001  1.682255e+000
      vertex -2.200000e+000  2.315122e+001  1.682255e+000
      vertex -1.200000e+000  2.325849e+001  1.328642e+000
    endloop
  endfacet
  facet normal  -0.000000e+000 -9.569404e-001 -2.902848e-001
    outer loop
      vertex -1.200000e+000  2.325849e+001  1.328642e+000
      vertex -2.200000e+000  2.315122e+001  1.682255e+000
      vertex -2.200000e+000  2.325849e+001  1.328642e+000
    endloop
  endfacet
  facet normal  0.000000e+000 -8.819215e-001 -4.713962e-001
    outer loop
      vertex -1.200000e+000  2.325849e+001  1.328642e+000
      vertex -2.200000e+000  2.325849e+001  1.328642e+000
      vertex -1.200000e+000  2.343268e+001  1.002750e+000
    endloop
  endfacet
  facet normal  -0.000000e+000 -8.819215e-001 -4.713962e-001
    outer loop
      vertex -1.200000e+000  2.343268e+001  1.002750e+000
      vertex -2.200000e+000  2.325849e+001  1.328642e+000
      vertex -2.200000e+000  2.343268e+001  1.002750e+000
    endloop
  endfacet
  facet normal  0.000000e+000 -7.730122e-001 -6.343912e-001
    outer loop
      vertex -1.200000e+000  2.343268e+001  1.002750e+000
      vertex -2.200000e+000  2.343268e+001  1.002750e+000
      vertex -1.200000e+000  2.366710e+001  7.171037e-001
    endloop
  endfacet
  facet normal  -0.000000e+000 -7.730122e-001 -6.343912e-001
    outer loop
      vertex -1.200000e+000  2.366710e+001  7.171037e-001
      vertex -2.200000e+000  2.343268e+001  1.002750e+000
      vertex -2.200000e+000  2.366710e+001  7.171037e-001
    endloop
  endfacet
  facet normal  0.000000e+000 -6.343932e-001 -7.730105e-001
    outer loop
      vertex -1.200000e+000  2.366710e+001  7.171037e-001
      vertex -2.200000e+000  2.366710e+001  7.171037e-001
      vertex -1.200000e+000  2.395275e+001  4.826798e-001
    endloop
  endfacet
  facet normal  -0.000000e+000 -6.343932e-001 -7.730105e-001
    outer loop
      vertex -1.200000e+000  2.395275e+001  4.826798e-001
      vertex -2.200000e+000  2.366710e+001  7.171037e-001
      vertex -2.200000e+000  2.395275e+001  4.826798e-001
    endloop
  endfacet
  facet normal  0.000000e+000 -4.713947e-001 -8.819224e-001
    outer loop
      vertex -1.200000e+000  2.395275e+001  4.826798e-001
      vertex -2.200000e+000  2.395275e+001  4.826798e-001
      vertex -1.200000e+000  2.427864e+001  3.084871e-001
    endloop
  endfacet
  facet normal  -0.000000e+000 -4.713947e-001 -8.819224e-001
    outer loop
      vertex -1.200000e+000  2.427864e+001  3.084871e-001
      vertex -2.200000e+000  2.395275e+001  4.826798e-001
      vertex -2.200000e+000  2.427864e+001  3.084871e-001
    endloop
  endfacet
  facet normal  0.000000e+000 -2.902848e-001 -9.569403e-001
    outer loop
      vertex -1.200000e+000  2.427864e+001  3.084871e-001
      vertex -2.200000e+000  2.427864e+001  3.084871e-001
      vertex -1.200000e+000  2.463226e+001  2.012198e-001
    endloop
  endfacet
  facet normal  -0.000000e+000 -2.902848e-001 -9.569403e-001
    outer loop
      vertex -1.200000e+000  2.463226e+001  2.012198e-001
      vertex -2.200000e+000  2.427864e+001  3.084871e-001
      vertex -2.200000e+000  2.463226e+001  2.012198e-001
    endloop
  endfacet
  facet normal  0.000000e+000 -9.801736e-002 -9.951847e-001
    outer loop
      vertex -1.200000e+000  2.463226e+001  2.012198e-001
      vertex -2.200000e+000  2.463226e+001  2.012198e-001
      vertex -1.200000e+000  2.500000e+001  1.650000e-001
    endloop
  endfacet
  facet normal  -0.000000e+000 -9.801736e-002 -9.951847e-001
    outer loop
      vertex -1.200000e+000  2.500000e+001  1.650000e-001
      vertex -2.200000e+000  2.463226e+001  2.012198e-001
      vertex -2.200000e+000  2.500000e+001  1.650000e-001
    endloop
  endfacet
  facet normal  0.000000e+000  9.801736e-002 -9.951847e-001
    outer loop
      vertex -1.200000e+000  2.500000e+001  1.650000e-001
      vertex -2.200000e+000  2.500000e+001  1.650000e-001
      vertex -1.200000e+000  2.536774e+001  2.012198e-001
    endloop
  endfacet
  facet normal  0.000000e+000  9.801736e-002 -9.951847e-001
    outer loop
      vertex -1.200000e+000  2.536774e+001  2.012198e-001
      vertex -2.200000e+000  2.500000e+001  1.650000e-001
      vertex -2.200000e+000  2.536774e+001  2.012198e-001
    endloop
  endfacet
  facet normal  0.000000e+000  2.902848e-001 -9.569403e-001
    outer loop
      vertex -1.200000e+000  2.536774e+001  2.012198e-001
      vertex -2.200000e+000  2.536774e+001  2.012198e-001
      vertex -1.200000e+000  2.572136e+001  3.084871e-001
    endloop
  endfacet
  facet normal  0.000000e+000  2.902848e-001 -9.569403e-001
    outer loop
      vertex -1.200000e+000  2.572136e+001  3.084871e-001
      vertex -2.200000e+000  2.536774e+001  2.012198e-001
      vertex -2.200000e+000  2.572136e+001  3.084871e-001
    endloop
  endfacet
  facet normal  0.000000e+000  4.713947e-001 -8.819224e-001
    outer loop
      vertex -1.200000e+000  2.572136e+001  3.084871e-001
      vertex -2.200000e+000  2.572136e+001  3.084871e-001
      vertex -1.200000e+000  2.604725e+001  4.826798e-001
    endloop
  endfacet
  facet normal  0.000000e+000  4.713947e-001 -8.819224e-001
    outer loop
      vertex -1.200000e+000  2.604725e+001  4.826798e-001
      vertex -2.200000e+000  2.572136e+001  3.084871e-001
      vertex -2.200000e+000  2.604725e+001  4.826798e-001
    endloop
  endfacet
  facet normal  0.000000e+000  6.343932e-001 -7.730105e-001
    outer loop
      vertex -1.200000e+000  2.604725e+001  4.826798e-001
      vertex -2.200000e+000  2.604725e+001  4.826798e-001
      vertex -1.200000e+000  2.633290e+001  7.171037e-001
    endloop
  endfacet
  facet normal  0.000000e+000  6.343932e-001 -7.730105e-001
    outer loop
      vertex -1.200000e+000  2.633290e+001  7.171037e-001
      vertex -2.200000e+000  2.604725e+001  4.826798e-001
      vertex -2.200000e+000  2.633290e+001  7.171037e-001
    endloop
  endfacet
  facet normal  0.000000e+000  7.730122e-001 -6.343912e-001
    outer loop
      vertex -1.200000e+000  2.633290e+001  7.171037e-001
      vertex -2.200000e+000  2.633290e+001  7.171037e-001
      vertex -1.200000e+000  2.656732e+001  1.002750e+000
    endloop
  endfacet
  facet normal  0.000000e+000  7.730122e-001 -6.343912e-001
    outer loop
      vertex -1.200000e+000  2.656732e+001  1.002750e+000
      vertex -2.200000e+000  2.633290e+001  7.171037e-001
      vertex -2.200000e+000  2.656732e+001  1.002750e+000
    endloop
  endfacet
  facet normal  0.000000e+000  8.819215e-001 -4.713962e-001
    outer loop
      vertex -1.200000e+000  2.656732e+001  1.002750e+000
      vertex -2.200000e+000  2.656732e+001  1.002750e+000
      vertex -1.200000e+000  2.674151e+001  1.328642e+000
    endloop
  endfacet
  facet normal  0.000000e+000  8.819215e-001 -4.713962e-001
    outer loop
      vertex -1.200000e+000  2.674151e+001  1.328642e+000
      vertex -2.200000e+000  2.656732e+001  1.002750e+000
      vertex -2.200000e+000  2.674151e+001  1.328642e+000
    endloop
  endfacet
  facet normal  0.000000e+000  9.569404e-001 -2.902848e-001
    outer loop
      vertex -1.200000e+000  2.674151e+001  1.328642e+000
      vertex -2.200000e+000  2.674151e+001  1.328642e+000
      vertex -1.200000e+000  2.684878e+001  1.682255e+000
    endloop
  endfacet
  facet normal  0.000000e+000  9.569404e-001 -2.902848e-001
    outer loop
      vertex -1.200000e+000  2.684878e+001  1.682255e+000
      vertex -2.200000e+000  2.674151e+001  1.328642e+000
      vertex -2.200000e+000  2.684878e+001  1.682255e+000
    endloop
  endfacet
  facet normal  0.000000e+000  9.951845e-001 -9.801932e-002
    outer loop
      vertex -1.200000e+000  2.684878e+001  1.682255e+000
      vertex -2.200000e+000  2.684878e+001  1.682255e+000
      vertex -1.200000e+000  2.688500e+001  2.050000e+000
    endloop
  endfacet
  facet normal  0.000000e+000  9.951845e-001 -9.801932e-002
    outer loop
      vertex -1.200000e+000  2.688500e+001  2.050000e+000
      vertex -2.200000e+000  2.684878e+001  1.682255e+000
      vertex -2.200000e+000  2.688500e+001  2.050000e+000
    endloop
  endfacet
endsolid CATIA STL
